<svg xmlns="http://www.w3.org/2000/svg" viewBox="0 0 12 10" width="12" height="10" shape-rendering="crispEdges"><rect x="1" y="0" width="1" height="1" fill="#120d0a"/><rect x="2" y="0" width="9" height="1" fill="#7a2626"/><rect x="11" y="0" width="1" height="1" fill="#120d0a"/><rect x="0" y="1" width="1" height="1" fill="#120d0a"/><rect x="1" y="1" width="1" height="1" fill="#7a2626"/><rect x="2" y="1" width="8" height="1" fill="#a83a3a"/><rect x="10" y="1" width="1" height="1" fill="#7a2626"/><rect x="11" y="1" width="1" height="1" fill="#120d0a"/><rect x="0" y="2" width="1" height="1" fill="#120d0a"/><rect x="1" y="2" width="1" height="1" fill="#7a2626"/><rect x="2" y="2" width="1" height="1" fill="#a83a3a"/><rect x="3" y="2" width="5" height="1" fill="#e0b94f"/><rect x="8" y="2" width="2" height="1" fill="#a83a3a"/><rect x="10" y="2" width="1" height="1" fill="#7a2626"/><rect x="11" y="2" width="1" height="1" fill="#120d0a"/><rect x="0" y="3" width="1" height="1" fill="#120d0a"/><rect x="1" y="3" width="1" height="1" fill="#7a2626"/><rect x="2" y="3" width="1" height="1" fill="#a83a3a"/><rect x="3" y="3" width="1" height="1" fill="#e0b94f"/><rect x="4" y="3" width="3" height="1" fill="#a83a3a"/><rect x="7" y="3" width="1" height="1" fill="#e0b94f"/><rect x="8" y="3" width="2" height="1" fill="#a83a3a"/><rect x="10" y="3" width="1" height="1" fill="#7a2626"/><rect x="11" y="3" width="1" height="1" fill="#120d0a"/><rect x="0" y="4" width="1" height="1" fill="#120d0a"/><rect x="1" y="4" width="1" height="1" fill="#7a2626"/><rect x="2" y="4" width="1" height="1" fill="#a83a3a"/><rect x="3" y="4" width="5" height="1" fill="#e0b94f"/><rect x="8" y="4" width="2" height="1" fill="#a83a3a"/><rect x="10" y="4" width="1" height="1" fill="#7a2626"/><rect x="11" y="4" width="1" height="1" fill="#120d0a"/><rect x="0" y="5" width="1" height="1" fill="#120d0a"/><rect x="1" y="5" width="1" height="1" fill="#7a2626"/><rect x="2" y="5" width="8" height="1" fill="#a83a3a"/><rect x="10" y="5" width="1" height="1" fill="#7a2626"/><rect x="11" y="5" width="1" height="1" fill="#120d0a"/><rect x="0" y="6" width="1" height="1" fill="#120d0a"/><rect x="1" y="6" width="1" height="1" fill="#7a2626"/><rect x="2" y="6" width="8" height="1" fill="#a83a3a"/><rect x="10" y="6" width="1" height="1" fill="#7a2626"/><rect x="11" y="6" width="1" height="1" fill="#120d0a"/><rect x="0" y="7" width="1" height="1" fill="#120d0a"/><rect x="1" y="7" width="1" height="1" fill="#7a2626"/><rect x="2" y="7" width="8" height="1" fill="#a83a3a"/><rect x="10" y="7" width="1" height="1" fill="#7a2626"/><rect x="11" y="7" width="1" height="1" fill="#120d0a"/><rect x="0" y="8" width="1" height="1" fill="#120d0a"/><rect x="1" y="8" width="1" height="1" fill="#7a2626"/><rect x="2" y="8" width="9" height="1" fill="#efe6d2"/><rect x="11" y="8" width="1" height="1" fill="#120d0a"/><rect x="1" y="9" width="1" height="1" fill="#120d0a"/><rect x="2" y="9" width="1" height="1" fill="#7a2626"/><rect x="3" y="9" width="8" height="1" fill="#efe6d2"/><rect x="11" y="9" width="1" height="1" fill="#120d0a"/></svg>